# Blender v2.93.0 OBJ File: 'arrow.blend'
# www.blender.org
mtllib arrow.mtl
o Cube
v 3.778754 9.539502 -7.092230
v 3.899551 9.271693 -7.579346
v 3.899551 6.776111 -7.579346
v 3.778754 6.508298 -7.092230
v 0.630533 9.507339 -0.066970
v 0.630526 9.271422 5.602954
v 0.630526 6.776381 5.602954
v 0.630533 6.540465 -0.066970
v -2.638485 9.271693 -7.579343
v -2.517689 9.539502 -7.092223
v -2.517689 6.508298 -7.092223
v -2.638485 6.776111 -7.579343
v 15.305740 8.061150 12.194103
v 15.273848 8.328962 12.772773
v 15.273848 7.718842 12.772773
v 15.305740 7.986654 12.194103
v 15.149620 8.328962 15.026129
v 15.125536 8.060883 15.463127
v 15.125536 7.986922 15.463127
v 15.149620 7.718842 15.026129
v -14.044677 7.986654 12.194096
v -14.012785 7.718842 12.772762
v -14.012785 8.328962 12.772762
v -14.044677 8.061150 12.194096
v -13.864474 8.060883 15.463118
v -13.888568 8.328962 15.026133
v -13.888568 7.718842 15.026133
v -13.864474 7.986922 15.463118
v 0.630533 9.681005 -8.233067
v 0.630535 8.283736 -13.594912
v 0.630527 7.193937 -11.461521
v 0.630537 7.845881 -13.125145
v 3.899551 9.271693 -7.579346
v 3.778754 9.539502 -7.092230
v 3.778754 6.508298 -7.092230
v 3.899551 6.776111 -7.579346
v -2.517689 9.539502 -7.092223
v -2.638485 9.271693 -7.579343
v -2.638485 6.776111 -7.579343
v -2.517689 6.508298 -7.092223
vt 0.628281 0.514260
vt 0.602912 0.500000
vt 0.602912 0.500000
vt 0.628281 0.514260
vt 0.375000 0.544254
vt 0.484737 0.500000
vt 0.515263 0.500000
vt 0.625000 0.544254
vt 0.625000 0.716581
vt 0.515152 0.750000
vt 0.484848 0.750000
vt 0.375000 0.716581
vt 0.602912 0.000000
vt 0.397088 0.000000
vt 0.484737 0.000000
vt 0.515263 0.000000
vt 0.375000 0.743024
vt 0.375000 0.509238
vt 0.153370 0.528370
vt 0.375000 0.509238
vt 0.370687 0.745687
vt 0.134238 0.750000
vt 0.134238 0.750000
vt 0.625000 0.509238
vt 0.625000 0.743024
vt 0.375000 0.783419
vt 0.484848 0.750000
vt 0.515152 0.750000
vt 0.625000 0.783419
vt 0.625000 0.955746
vt 0.515263 1.000000
vt 0.484737 1.000000
vt 0.375000 0.955746
vt 0.631976 0.750000
vt 0.865762 0.750000
vt 0.830746 0.750000
vt 0.658419 0.750000
vt 0.625000 0.509238
vt 0.847683 0.527317
vt 0.865762 0.750000
vt 0.629313 0.745687
vt 0.397110 0.750000
vt 0.602890 0.750000
vt 0.464729 0.250000
vt 0.551480 0.250000
vt 0.397088 0.500000
vt 0.397088 0.500000
vt 0.368024 0.750000
vt 0.341581 0.750000
vt 0.169254 0.750000
vt 0.375000 0.499425
vt 0.375000 0.499425
vt 0.625000 0.000000
vt 0.625000 0.000000
vt 0.602912 0.000000
vt 0.125000 0.750000
vt 0.125000 0.750000
vt 0.125000 0.750000
vt 0.625000 0.000000
vt 0.125000 0.500000
vt 0.358959 0.500000
vt 0.625000 0.294253
vt 0.625000 0.483959
vt 0.625000 0.016041
vt 0.625000 0.205747
vt 0.125000 0.733959
vt 0.397088 0.000000
vn 0.0000 0.0000 1.0000
vn 0.9985 0.0000 0.0550
vn -0.8662 0.0000 -0.4997
vn 0.0590 -0.9980 0.0243
vn -0.0000 -0.9984 -0.0573
vn 0.0590 0.9980 0.0243
vn -0.9985 0.0000 0.0550
vn -0.0590 0.9980 0.0243
vn 0.0000 0.9998 0.0213
vn 0.5624 0.0000 0.8268
vn 0.8675 -0.0787 -0.4911
vn -0.0590 -0.9980 0.0243
vn -0.5624 0.0000 0.8268
vn 0.0113 0.9965 0.0823
vn 0.5886 0.7530 -0.2941
vn 0.0113 -0.9965 0.0823
vn 0.5886 -0.7530 -0.2941
vn -0.5886 -0.7530 -0.2941
vn -0.5886 0.7530 -0.2941
vn -0.0113 -0.9965 0.0823
vn -0.0113 0.9965 0.0823
vn 0.8662 0.0000 -0.4997
vn 0.3133 -0.8794 -0.3585
vn 0.1720 0.9484 -0.2664
vn -0.1720 0.9484 -0.2664
vn -0.3133 -0.8794 -0.3585
vn -0.8675 -0.0787 -0.4911
usemtl main
s off
f 1/1/1 2/2/1 33/3/1 34/4/1
f 15/5/2 16/6/2 13/7/2 14/8/2 17/9/2 18/10/2 19/11/2 20/12/2
f 9/13/3 12/14/3 21/15/3 24/16/3
f 8/17/4 4/18/4 15/5/4 20/12/4
f 31/19/5 35/20/5 4/18/5 8/21/5 11/22/5 40/23/5
f 1/24/6 5/25/6 17/9/6 14/8/6
f 27/26/7 28/27/7 25/28/7 26/29/7 23/30/7 24/31/7 21/32/7 22/33/7
f 5/34/8 10/35/8 23/36/8 26/37/8
f 1/24/9 34/38/9 29/39/9 37/40/9 10/35/9 5/41/9
f 7/42/10 6/43/10 25/28/10 28/27/10
f 32/44/11 30/45/11 33/3/11 2/2/11 3/46/11 36/47/11
f 11/22/12 8/48/12 27/49/12 22/50/12
f 6/43/13 7/42/13 19/11/13 18/10/13
f 3/51/1 4/18/1 35/20/1 36/52/1
f 9/13/1 10/53/1 37/54/1 38/55/1
f 11/22/1 12/56/1 39/57/1 40/23/1
f 6/43/14 18/10/14 17/9/14 5/25/14
f 13/7/15 2/2/15 1/24/15 14/8/15
f 8/17/16 20/12/16 19/11/16 7/42/16
f 15/5/17 4/18/17 3/46/17 16/6/17
f 11/22/18 22/50/18 21/58/18 12/56/18
f 23/59/19 10/53/19 9/13/19 24/16/19
f 7/42/20 28/27/20 27/49/20 8/48/20
f 25/28/21 6/43/21 5/34/21 26/37/21
f 3/46/22 2/2/22 13/7/22 16/6/22
f 35/20/23 31/19/23 32/60/23 36/61/23
f 29/62/24 34/63/24 33/3/24 30/45/24
f 30/45/25 38/55/25 37/64/25 29/65/25
f 39/66/26 32/60/26 31/19/26 40/23/26
f 39/67/27 12/14/27 9/13/27 38/55/27 30/45/27 32/44/27
